<?xml version="1.0" encoding="utf-8"?>
<!-- Generator: Adobe Illustrator 15.0.0, SVG Export Plug-In . SVG Version: 6.00 Build 0)  -->
<!DOCTYPE svg PUBLIC "-//W3C//DTD SVG 1.1//EN" "http://www.w3.org/Graphics/SVG/1.1/DTD/svg11.dtd">
<svg version="1.1" id="Layer_1" xmlns="http://www.w3.org/2000/svg" xmlns:xlink="http://www.w3.org/1999/xlink" x="0px" y="0px"
	 width="100px" height="100px" viewBox="0 0 100 100" enable-background="new 0 0 100 100" xml:space="preserve">
<radialGradient id="SVGID_1_" cx="41.6748" cy="46.5537" r="38.3259" gradientTransform="matrix(0.9989 -0.0462 0.0462 0.9989 -1.9199 1.8701)" gradientUnits="userSpaceOnUse">
	<stop  offset="0" style="stop-color:#9FBF00"/>
	<stop  offset="0.1202" style="stop-color:#A4BF09"/>
	<stop  offset="0.3161" style="stop-color:#B3BF21"/>
	<stop  offset="0.5635" style="stop-color:#CBBF49"/>
	<stop  offset="0.8499" style="stop-color:#ECBF80"/>
	<stop  offset="1" style="stop-color:#FFBF9F"/>
</radialGradient>
<polygon fill="url(#SVGID_1_)" points="51.545,85.118 32.229,65.827 5.387,70.802 17.766,46.471 4.74,22.479 31.706,26.733 
	50.498,6.931 54.785,33.892 79.425,45.645 55.109,58.053 "/>
<text transform="matrix(1 0 0 1 25.9009 31.8076)" font-family="'MyriadPro-It'" font-size="12">stream-statics</text>
<text transform="matrix(1 0 0 1 9.0742 61.4556)" font-family="'MyriadPro-Semibold'" font-size="12">streat</text>
<text transform="matrix(1 0 0 1 24.9399 85.6543)" font-family="'MyriadPro-Cond'" font-size="11">stream</text>
<text transform="matrix(1 0 0 1 6.0293 17.9868)" font-family="'MyriadPro-Semibold'" font-size="16">stst</text>
<text transform="matrix(1 0 0 1 61.6392 49.7568)" font-family="'MyriadPro-Semibold'" font-size="12">strics</text>
<text transform="matrix(1 0 0 1 54.1064 78.4434)" font-family="'MyriadPro-Cond'" font-size="11">statics</text>
</svg>
