<?xml version="1.0" encoding="utf-8"?>
<!-- Generator: Adobe Illustrator 15.0.0, SVG Export Plug-In . SVG Version: 6.00 Build 0)  -->
<!DOCTYPE svg PUBLIC "-//W3C//DTD SVG 1.1//EN" "http://www.w3.org/Graphics/SVG/1.1/DTD/svg11.dtd">
<svg version="1.1" id="Layer_1" xmlns="http://www.w3.org/2000/svg" xmlns:xlink="http://www.w3.org/1999/xlink" x="0px" y="0px"
	 width="100px" height="100px" viewBox="0 0 100 100" enable-background="new 0 0 100 100" xml:space="preserve">
<radialGradient id="SVGID_1_" cx="41.6748" cy="46.5537" r="38.3259" gradientTransform="matrix(0.9989 -0.0462 0.0462 0.9989 -1.9199 1.8701)" gradientUnits="userSpaceOnUse">
	<stop  offset="0" style="stop-color:#9FBF00"/>
	<stop  offset="0.1202" style="stop-color:#A4BF09"/>
	<stop  offset="0.3161" style="stop-color:#B3BF21"/>
	<stop  offset="0.5635" style="stop-color:#CBBF49"/>
	<stop  offset="0.8499" style="stop-color:#ECBF80"/>
	<stop  offset="1" style="stop-color:#FFBF9F"/>
</radialGradient>
<polygon fill="url(#SVGID_1_)" points="51.545,85.118 32.229,65.827 5.387,70.802 17.766,46.471 4.74,22.479 31.706,26.733 
	50.498,6.931 54.785,33.892 79.425,45.645 55.109,58.053 "/>
<g>
	<path d="M26.285,30.8c0.276,0.168,0.78,0.36,1.248,0.36c0.671,0,1.103-0.432,1.103-0.948c0-0.456-0.204-0.731-0.803-1.067
		c-0.672-0.372-1.043-0.888-1.043-1.475c0-1.02,0.875-1.799,2.099-1.799c0.528,0,0.996,0.144,1.211,0.288l-0.276,0.756
		c-0.204-0.12-0.576-0.264-1.007-0.264c-0.6,0-1.032,0.372-1.032,0.875c0,0.42,0.276,0.684,0.792,0.972
		c0.648,0.372,1.092,0.875,1.092,1.523c0,1.224-0.996,1.907-2.219,1.907c-0.624,0-1.176-0.192-1.439-0.396L26.285,30.8z"/>
	<path d="M33.178,24.444l-0.3,1.559h1.391l-0.156,0.779h-1.392l-0.54,2.819c-0.06,0.324-0.108,0.624-0.108,0.935
		c0,0.348,0.168,0.552,0.552,0.552c0.168,0,0.336-0.012,0.468-0.036l-0.048,0.779c-0.18,0.072-0.48,0.108-0.768,0.108
		c-0.888,0-1.224-0.54-1.224-1.127c0-0.335,0.036-0.671,0.12-1.091l0.576-2.938h-0.84l0.156-0.779h0.828l0.251-1.308L33.178,24.444z
		"/>
	<path d="M34.195,31.808l0.708-3.742c0.144-0.756,0.24-1.523,0.3-2.063h0.875c-0.048,0.408-0.096,0.815-0.156,1.259h0.036
		c0.372-0.792,0.996-1.391,1.775-1.391c0.084,0,0.204,0.012,0.276,0.024l-0.192,0.983c-0.06-0.012-0.156-0.024-0.264-0.024
		c-0.863,0-1.631,1.043-1.883,2.398l-0.48,2.555H34.195z"/>
	<path d="M42.005,31.472c-0.432,0.252-1.139,0.456-1.919,0.456c-1.535,0-2.207-1.043-2.207-2.327c0-1.751,1.295-3.73,3.166-3.73
		c1.104,0,1.703,0.66,1.703,1.487c0,1.523-1.715,1.931-3.862,1.895c-0.048,0.252-0.012,0.792,0.12,1.104
		c0.228,0.516,0.696,0.78,1.295,0.78c0.684,0,1.199-0.216,1.559-0.408L42.005,31.472z M40.902,26.65
		c-0.947,0-1.655,0.923-1.895,1.835c1.56,0.012,2.783-0.192,2.783-1.091C41.79,26.915,41.43,26.65,40.902,26.65z"/>
	<path d="M47.031,31.808c0-0.348,0.061-0.899,0.132-1.499H47.14c-0.636,1.199-1.428,1.631-2.255,1.631
		c-1.02,0-1.667-0.815-1.667-1.919c0-2.015,1.487-4.149,4.018-4.149c0.552,0,1.163,0.096,1.56,0.228l-0.588,3.022
		c-0.192,1.007-0.276,2.039-0.252,2.687H47.031z M47.679,26.747c-0.144-0.036-0.359-0.084-0.695-0.084
		c-1.499,0-2.723,1.571-2.734,3.178c0,0.647,0.228,1.283,0.995,1.283c0.828,0,1.812-1.08,2.099-2.626L47.679,26.747z"/>
	<path d="M49.353,31.808l0.779-4.114c0.12-0.647,0.204-1.211,0.264-1.691h0.876l-0.156,1.091h0.036
		c0.54-0.804,1.271-1.223,2.039-1.223c0.888,0,1.308,0.563,1.355,1.295c0.516-0.839,1.259-1.283,2.135-1.295
		c0.671,0,1.403,0.432,1.403,1.523c0,0.276-0.036,0.66-0.097,0.983l-0.647,3.43h-0.972l0.624-3.346
		c0.048-0.216,0.084-0.516,0.084-0.755c0-0.612-0.228-1.008-0.876-1.008c-0.719,0-1.57,0.84-1.811,2.135l-0.563,2.974h-0.96
		l0.647-3.406c0.049-0.252,0.072-0.479,0.072-0.708c0-0.492-0.132-0.996-0.863-0.996s-1.631,0.959-1.859,2.195l-0.539,2.915H49.353z
		"/>
	<path d="M62.166,28.174l-0.145,0.779h-2.878l0.155-0.779H62.166z"/>
	<path d="M62.673,30.8c0.275,0.168,0.779,0.36,1.247,0.36c0.672,0,1.104-0.432,1.104-0.948c0-0.456-0.204-0.731-0.804-1.067
		c-0.671-0.372-1.043-0.888-1.043-1.475c0-1.02,0.875-1.799,2.099-1.799c0.527,0,0.995,0.144,1.211,0.288l-0.275,0.756
		c-0.204-0.12-0.576-0.264-1.008-0.264c-0.6,0-1.031,0.372-1.031,0.875c0,0.42,0.276,0.684,0.792,0.972
		c0.647,0.372,1.091,0.875,1.091,1.523c0,1.224-0.995,1.907-2.219,1.907c-0.623,0-1.175-0.192-1.438-0.396L62.673,30.8z"/>
	<path d="M69.566,24.444l-0.3,1.559h1.392l-0.156,0.779H69.11l-0.539,2.819c-0.061,0.324-0.108,0.624-0.108,0.935
		c0,0.348,0.168,0.552,0.552,0.552c0.168,0,0.336-0.012,0.468-0.036l-0.048,0.779c-0.18,0.072-0.479,0.108-0.768,0.108
		c-0.888,0-1.224-0.54-1.224-1.127c0-0.335,0.036-0.671,0.12-1.091l0.575-2.938H67.3l0.155-0.779h0.828l0.252-1.308L69.566,24.444z"
		/>
	<path d="M74.243,31.808c0-0.348,0.061-0.899,0.132-1.499h-0.023c-0.636,1.199-1.428,1.631-2.255,1.631
		c-1.02,0-1.667-0.815-1.667-1.919c0-2.015,1.487-4.149,4.018-4.149c0.552,0,1.163,0.096,1.559,0.228l-0.587,3.022
		c-0.192,1.007-0.276,2.039-0.252,2.687H74.243z M74.891,26.747c-0.144-0.036-0.359-0.084-0.695-0.084
		c-1.499,0-2.723,1.571-2.734,3.178c0,0.647,0.228,1.283,0.995,1.283c0.828,0,1.812-1.08,2.099-2.626L74.891,26.747z"/>
	<path d="M79.111,24.444l-0.3,1.559h1.392l-0.156,0.779h-1.392l-0.539,2.819c-0.061,0.324-0.108,0.624-0.108,0.935
		c0,0.348,0.168,0.552,0.552,0.552c0.168,0,0.336-0.012,0.468-0.036l-0.048,0.779c-0.18,0.072-0.479,0.108-0.768,0.108
		c-0.888,0-1.224-0.54-1.224-1.127c0-0.335,0.036-0.671,0.12-1.091l0.575-2.938h-0.839L77,26.003h0.828l0.252-1.308L79.111,24.444z"
		/>
	<path d="M80.079,31.808l1.115-5.805h0.995l-1.115,5.805H80.079z M81.374,24.384c0-0.384,0.3-0.672,0.66-0.672
		c0.359,0,0.587,0.264,0.587,0.624c-0.012,0.396-0.287,0.671-0.671,0.671C81.603,25.007,81.374,24.744,81.374,24.384z"/>
	<path d="M86.707,31.58c-0.301,0.144-0.9,0.348-1.68,0.348c-1.499,0-2.23-1.008-2.23-2.243c0-1.979,1.463-3.802,3.55-3.802
		c0.54,0,1.031,0.156,1.212,0.252l-0.288,0.792c-0.229-0.108-0.552-0.216-0.983-0.216c-1.512,0-2.459,1.487-2.459,2.854
		c0,0.936,0.492,1.547,1.439,1.547c0.588,0,1.043-0.18,1.343-0.324L86.707,31.58z"/>
	<path d="M87.795,30.8c0.275,0.168,0.779,0.36,1.247,0.36c0.672,0,1.104-0.432,1.104-0.948c0-0.456-0.204-0.731-0.804-1.067
		c-0.671-0.372-1.043-0.888-1.043-1.475c0-1.02,0.875-1.799,2.099-1.799c0.527,0,0.995,0.144,1.211,0.288l-0.275,0.756
		c-0.204-0.12-0.576-0.264-1.008-0.264c-0.6,0-1.031,0.372-1.031,0.875c0,0.42,0.276,0.684,0.792,0.972
		c0.647,0.372,1.091,0.875,1.091,1.523c0,1.224-0.995,1.907-2.219,1.907c-0.623,0-1.175-0.192-1.438-0.396L87.795,30.8z"/>
</g>
<g>
	<path d="M9.794,60.1c0.335,0.204,0.971,0.42,1.499,0.42c0.647,0,0.936-0.264,0.936-0.647c0-0.396-0.24-0.6-0.959-0.852
		c-1.14-0.396-1.619-1.02-1.607-1.703c0-1.031,0.851-1.835,2.207-1.835c0.647,0,1.211,0.168,1.547,0.348l-0.288,1.043
		c-0.252-0.144-0.72-0.336-1.235-0.336c-0.528,0-0.815,0.252-0.815,0.612c0,0.372,0.276,0.552,1.02,0.815
		c1.055,0.384,1.547,0.924,1.559,1.787c0,1.056-0.828,1.823-2.375,1.823c-0.708,0-1.343-0.168-1.775-0.408L9.794,60.1z"/>
	<path d="M16.542,53.948v1.667h1.403v1.104h-1.403v2.578c0,0.708,0.192,1.08,0.756,1.08c0.252,0,0.444-0.036,0.576-0.072
		l0.024,1.127c-0.216,0.084-0.6,0.145-1.067,0.145c-0.54,0-0.996-0.18-1.271-0.479c-0.312-0.336-0.456-0.864-0.456-1.632v-2.746
		h-0.839v-1.104h0.839v-1.319L16.542,53.948z"/>
	<path d="M18.943,57.498c0-0.792-0.012-1.355-0.048-1.883h1.283l0.048,1.115h0.048c0.288-0.827,0.971-1.247,1.595-1.247
		c0.144,0,0.228,0.012,0.348,0.036v1.391c-0.12-0.024-0.252-0.048-0.432-0.048c-0.708,0-1.187,0.456-1.319,1.115
		c-0.024,0.133-0.048,0.288-0.048,0.456v3.022h-1.475V57.498z"/>
	<path d="M24.187,58.949c0.036,1.056,0.864,1.512,1.799,1.512c0.684,0,1.176-0.097,1.619-0.265l0.216,1.02
		c-0.503,0.204-1.199,0.36-2.039,0.36c-1.895,0-3.01-1.163-3.01-2.95c0-1.62,0.983-3.143,2.854-3.143
		c1.895,0,2.519,1.559,2.519,2.843c0,0.275-0.024,0.491-0.048,0.623H24.187z M26.753,57.917c0.012-0.54-0.228-1.427-1.211-1.427
		c-0.912,0-1.295,0.828-1.355,1.427H26.753z"/>
	<path d="M32.566,61.456l-0.096-0.647h-0.036c-0.36,0.456-0.971,0.779-1.727,0.779c-1.175,0-1.835-0.852-1.835-1.739
		c0-1.475,1.307-2.219,3.466-2.206v-0.097c0-0.383-0.156-1.019-1.188-1.019c-0.576,0-1.175,0.18-1.571,0.432l-0.288-0.959
		c0.432-0.264,1.187-0.516,2.111-0.516c1.871,0,2.411,1.188,2.411,2.459v2.11c0,0.527,0.024,1.044,0.084,1.403H32.566z
		 M32.375,58.601c-1.043-0.024-2.039,0.204-2.039,1.092c0,0.575,0.372,0.839,0.839,0.839c0.588,0,1.02-0.384,1.151-0.803
		c0.036-0.108,0.048-0.229,0.048-0.324V58.601z"/>
	<path d="M36.929,53.948v1.667h1.403v1.104h-1.403v2.578c0,0.708,0.192,1.08,0.756,1.08c0.252,0,0.444-0.036,0.576-0.072
		l0.024,1.127c-0.216,0.084-0.6,0.145-1.067,0.145c-0.54,0-0.996-0.18-1.271-0.479c-0.312-0.336-0.456-0.864-0.456-1.632v-2.746
		h-0.839v-1.104h0.839v-1.319L36.929,53.948z"/>
</g>
<g>
	<path d="M25.391,84.775c0.187,0.121,0.517,0.273,0.858,0.273c0.484,0,0.781-0.297,0.781-0.77c0-0.406-0.143-0.682-0.682-1.045
		c-0.693-0.451-1.067-0.902-1.067-1.518c0-0.859,0.638-1.475,1.463-1.475c0.418,0,0.737,0.143,0.957,0.275l-0.231,0.637
		c-0.198-0.131-0.429-0.23-0.704-0.23c-0.462,0-0.693,0.33-0.693,0.672c0,0.363,0.132,0.561,0.66,0.924
		c0.616,0.396,1.1,0.881,1.1,1.617c0,1.066-0.726,1.584-1.595,1.584c-0.396,0-0.825-0.121-1.056-0.309L25.391,84.775z"/>
	<path d="M29.863,78.922v1.408h1.023v0.648h-1.023v3.158c0,0.693,0.253,0.881,0.561,0.881c0.132,0,0.242-0.012,0.341-0.033
		l0.033,0.648c-0.154,0.055-0.352,0.088-0.627,0.088c-0.33,0-0.627-0.088-0.836-0.318c-0.209-0.242-0.319-0.605-0.319-1.344v-3.08
		h-0.649V80.33h0.649v-1.166L29.863,78.922z"/>
	<path d="M31.667,81.705c0-0.451-0.033-0.979-0.044-1.375h0.759l0.044,0.836h0.022c0.176-0.506,0.627-0.924,1.122-0.924
		c0.066,0,0.121,0.012,0.176,0.012v0.869c-0.055-0.012-0.11-0.012-0.176-0.012c-0.539,0-0.935,0.494-1.023,1.111
		c-0.022,0.143-0.033,0.309-0.033,0.484v2.947h-0.847V81.705z"/>
	<path d="M35.008,83.07c0.011,1.627,0.649,1.979,1.265,1.979c0.363,0,0.671-0.088,0.88-0.209l0.132,0.627
		c-0.297,0.166-0.748,0.254-1.166,0.254c-1.276,0-1.936-1.045-1.936-2.674c0-1.727,0.726-2.805,1.793-2.805
		c1.089,0,1.518,1.145,1.518,2.354c0,0.199,0,0.342-0.011,0.475H35.008z M36.68,82.441c0.022-1.066-0.385-1.539-0.792-1.539
		c-0.55,0-0.836,0.814-0.869,1.539H36.68z"/>
	<path d="M40.479,85.654l-0.055-0.561h-0.033c-0.231,0.406-0.605,0.648-1.056,0.648c-0.715,0-1.265-0.604-1.265-1.518
		c0-1.332,1.067-1.926,2.266-1.936v-0.166c0-0.715-0.176-1.209-0.847-1.209c-0.33,0-0.627,0.109-0.88,0.273l-0.187-0.594
		c0.22-0.164,0.715-0.352,1.243-0.352c1.067,0,1.529,0.703,1.529,1.902v2.301c0,0.406,0,0.869,0.055,1.209H40.479z M40.357,82.904
		c-0.44,0-1.463,0.076-1.463,1.232c0,0.693,0.352,0.945,0.649,0.945c0.374,0,0.693-0.273,0.792-0.803
		c0.022-0.1,0.022-0.209,0.022-0.297V82.904z"/>
	<path d="M42.352,81.705c0-0.627-0.033-0.945-0.044-1.375h0.737l0.044,0.66h0.022c0.231-0.43,0.638-0.748,1.199-0.748
		c0.495,0,0.913,0.242,1.111,0.814h0.022c0.143-0.264,0.33-0.473,0.528-0.605c0.209-0.143,0.462-0.209,0.737-0.209
		c0.715,0,1.276,0.527,1.276,1.881v3.531h-0.836v-3.332c0-0.693-0.099-1.365-0.748-1.365c-0.352,0-0.66,0.297-0.781,0.793
		c-0.022,0.143-0.033,0.307-0.033,0.482v3.422H44.75v-3.486c0-0.596-0.11-1.211-0.737-1.211c-0.341,0-0.693,0.297-0.792,0.857
		c-0.022,0.145-0.033,0.297-0.033,0.463v3.377h-0.836V81.705z"/>
</g>
<g>
	<path d="M6.99,16.178c0.448,0.272,1.296,0.56,2.001,0.56c0.864,0,1.248-0.352,1.248-0.864c0-0.528-0.32-0.8-1.28-1.137
		c-1.521-0.528-2.161-1.36-2.145-2.273c0-1.376,1.137-2.449,2.945-2.449c0.864,0,1.617,0.224,2.065,0.464l-0.384,1.393
		c-0.336-0.192-0.96-0.448-1.648-0.448c-0.705,0-1.089,0.336-1.089,0.816c0,0.496,0.368,0.736,1.361,1.088
		c1.409,0.512,2.065,1.232,2.081,2.385c0,1.409-1.104,2.433-3.169,2.433c-0.944,0-1.793-0.224-2.369-0.544L6.99,16.178z"/>
	<path d="M15.97,7.967v2.225h1.873v1.472H15.97v3.441c0,0.944,0.256,1.441,1.008,1.441c0.336,0,0.592-0.048,0.768-0.096l0.032,1.504
		c-0.288,0.112-0.8,0.192-1.425,0.192c-0.72,0-1.328-0.24-1.696-0.64c-0.417-0.448-0.608-1.153-0.608-2.177v-3.666h-1.121v-1.472
		h1.121V8.431L15.97,7.967z"/>
	<path d="M19.233,16.178c0.448,0.272,1.296,0.56,2.001,0.56c0.864,0,1.248-0.352,1.248-0.864c0-0.528-0.32-0.8-1.28-1.137
		c-1.521-0.528-2.161-1.36-2.145-2.273c0-1.376,1.137-2.449,2.945-2.449c0.864,0,1.617,0.224,2.065,0.464l-0.384,1.393
		c-0.336-0.192-0.96-0.448-1.648-0.448c-0.705,0-1.089,0.336-1.089,0.816c0,0.496,0.368,0.736,1.361,1.088
		c1.409,0.512,2.065,1.232,2.081,2.385c0,1.409-1.104,2.433-3.169,2.433c-0.944,0-1.793-0.224-2.369-0.544L19.233,16.178z"/>
	<path d="M28.213,7.967v2.225h1.873v1.472h-1.873v3.441c0,0.944,0.256,1.441,1.008,1.441c0.336,0,0.592-0.048,0.768-0.096
		l0.032,1.504c-0.288,0.112-0.8,0.192-1.425,0.192c-0.72,0-1.328-0.24-1.696-0.64c-0.417-0.448-0.608-1.153-0.608-2.177v-3.666
		h-1.121v-1.472h1.121V8.431L28.213,7.967z"/>
</g>
<g>
	<path d="M62.359,48.401c0.336,0.204,0.971,0.42,1.499,0.42c0.647,0,0.936-0.264,0.936-0.647c0-0.396-0.24-0.6-0.959-0.852
		c-1.139-0.396-1.619-1.02-1.607-1.703c0-1.031,0.852-1.835,2.207-1.835c0.647,0,1.211,0.168,1.547,0.348l-0.288,1.043
		c-0.252-0.144-0.72-0.336-1.235-0.336c-0.528,0-0.815,0.252-0.815,0.612c0,0.372,0.276,0.552,1.02,0.815
		c1.055,0.384,1.547,0.924,1.559,1.787c0,1.056-0.828,1.823-2.375,1.823c-0.708,0-1.344-0.168-1.775-0.408L62.359,48.401z"/>
	<path d="M69.107,42.249v1.667h1.403v1.104h-1.403v2.579c0,0.708,0.192,1.079,0.756,1.079c0.252,0,0.444-0.036,0.576-0.072
		l0.024,1.127c-0.216,0.084-0.6,0.144-1.067,0.144c-0.54,0-0.996-0.18-1.271-0.48c-0.312-0.336-0.456-0.863-0.456-1.631V45.02
		h-0.839v-1.104h0.839v-1.319L69.107,42.249z"/>
	<path d="M71.509,45.799c0-0.792-0.012-1.355-0.048-1.883h1.283l0.048,1.115h0.048c0.288-0.827,0.971-1.247,1.595-1.247
		c0.144,0,0.228,0.012,0.348,0.036v1.391c-0.12-0.024-0.252-0.048-0.432-0.048c-0.708,0-1.188,0.456-1.319,1.115
		c-0.024,0.132-0.048,0.288-0.048,0.456v3.022h-1.475V45.799z"/>
	<path d="M77.268,42.285c0,0.443-0.324,0.792-0.84,0.792c-0.492,0-0.815-0.348-0.815-0.792c0-0.456,0.336-0.804,0.827-0.804
		C76.943,41.481,77.256,41.829,77.268,42.285z M75.696,49.757v-5.841h1.487v5.841H75.696z"/>
	<path d="M82.979,49.577c-0.312,0.144-0.924,0.3-1.655,0.3c-1.823,0-3.011-1.164-3.011-2.975c0-1.751,1.199-3.118,3.25-3.118
		c0.54,0,1.092,0.12,1.428,0.276l-0.264,1.104c-0.24-0.108-0.588-0.228-1.115-0.228c-1.127,0-1.799,0.828-1.787,1.895
		c0,1.199,0.779,1.883,1.787,1.883c0.516,0,0.875-0.108,1.163-0.228L82.979,49.577z"/>
	<path d="M84.055,48.401c0.336,0.204,0.971,0.42,1.499,0.42c0.647,0,0.936-0.264,0.936-0.647c0-0.396-0.239-0.6-0.96-0.852
		c-1.139-0.396-1.619-1.02-1.606-1.703c0-1.031,0.851-1.835,2.206-1.835c0.648,0,1.212,0.168,1.548,0.348l-0.288,1.043
		c-0.252-0.144-0.72-0.336-1.235-0.336c-0.528,0-0.815,0.252-0.815,0.612c0,0.372,0.275,0.552,1.02,0.815
		c1.055,0.384,1.547,0.924,1.559,1.787c0,1.056-0.827,1.823-2.375,1.823c-0.707,0-1.342-0.168-1.774-0.408L84.055,48.401z"/>
</g>
<g>
	<path d="M54.558,77.563c0.187,0.121,0.517,0.274,0.858,0.274c0.483,0,0.78-0.297,0.78-0.77c0-0.407-0.143-0.683-0.682-1.045
		c-0.693-0.451-1.067-0.902-1.067-1.519c0-0.858,0.639-1.475,1.464-1.475c0.418,0,0.736,0.144,0.957,0.275l-0.231,0.638
		c-0.198-0.132-0.429-0.23-0.704-0.23c-0.462,0-0.693,0.33-0.693,0.671c0,0.363,0.133,0.562,0.66,0.924
		C56.516,75.704,57,76.188,57,76.925c0,1.067-0.727,1.585-1.596,1.585c-0.396,0-0.825-0.121-1.056-0.309L54.558,77.563z"/>
	<path d="M59.028,71.71v1.408h1.023v0.649h-1.023v3.157c0,0.693,0.253,0.881,0.562,0.881c0.132,0,0.242-0.012,0.341-0.033
		l0.033,0.648c-0.154,0.056-0.353,0.089-0.627,0.089c-0.33,0-0.627-0.089-0.836-0.319c-0.209-0.242-0.319-0.605-0.319-1.343v-3.08
		h-0.649v-0.649h0.649v-1.166L59.028,71.71z"/>
	<path d="M62.974,78.443l-0.055-0.562h-0.033c-0.231,0.407-0.605,0.649-1.057,0.649c-0.715,0-1.265-0.604-1.265-1.519
		c0-1.331,1.067-1.925,2.267-1.936v-0.165c0-0.716-0.177-1.21-0.848-1.21c-0.33,0-0.627,0.109-0.88,0.274l-0.188-0.594
		c0.221-0.165,0.716-0.353,1.243-0.353c1.067,0,1.529,0.704,1.529,1.903v2.3c0,0.407,0,0.869,0.056,1.21H62.974z M62.853,75.693
		c-0.439,0-1.463,0.076-1.463,1.231c0,0.693,0.352,0.946,0.649,0.946c0.374,0,0.692-0.274,0.792-0.803
		c0.021-0.1,0.021-0.209,0.021-0.297V75.693z"/>
	<path d="M65.874,71.71v1.408h1.023v0.649h-1.023v3.157c0,0.693,0.253,0.881,0.562,0.881c0.132,0,0.242-0.012,0.341-0.033
		l0.033,0.648c-0.154,0.056-0.353,0.089-0.627,0.089c-0.33,0-0.627-0.089-0.836-0.319c-0.209-0.242-0.319-0.605-0.319-1.343v-3.08
		h-0.649v-0.649h0.649v-1.166L65.874,71.71z"/>
	<path d="M68.576,71.743c0.012,0.33-0.197,0.551-0.517,0.551c-0.275,0-0.484-0.221-0.484-0.551s0.221-0.55,0.495-0.55
		C68.379,71.193,68.576,71.413,68.576,71.743z M67.663,78.443v-5.325h0.848v5.325H67.663z"/>
	<path d="M72.257,78.312c-0.187,0.109-0.506,0.198-0.88,0.198c-1.166,0-1.947-0.936-1.947-2.695c0-1.529,0.77-2.772,2.102-2.772
		c0.285,0,0.594,0.076,0.748,0.165l-0.165,0.692c-0.11-0.055-0.33-0.143-0.605-0.143c-0.847,0-1.232,1.012-1.232,2.058
		c0,1.243,0.474,1.991,1.255,1.991c0.23,0,0.418-0.056,0.615-0.144L72.257,78.312z"/>
	<path d="M73.047,77.563c0.187,0.121,0.517,0.274,0.858,0.274c0.483,0,0.78-0.297,0.78-0.77c0-0.407-0.143-0.683-0.682-1.045
		c-0.693-0.451-1.067-0.902-1.067-1.519c0-0.858,0.639-1.475,1.464-1.475c0.418,0,0.736,0.144,0.957,0.275l-0.231,0.638
		c-0.198-0.132-0.429-0.23-0.704-0.23c-0.462,0-0.693,0.33-0.693,0.671c0,0.363,0.133,0.562,0.66,0.924
		c0.616,0.396,1.101,0.881,1.101,1.617c0,1.067-0.727,1.585-1.596,1.585c-0.396,0-0.825-0.121-1.056-0.309L73.047,77.563z"/>
</g>
</svg>
